<?xml version="1.0" encoding="utf-8"?>
<!-- Generator: Adobe Illustrator 16.0.0, SVG Export Plug-In . SVG Version: 6.00 Build 0)  -->
<!DOCTYPE svg PUBLIC "-//W3C//DTD SVG 1.1//EN" "http://www.w3.org/Graphics/SVG/1.1/DTD/svg11.dtd">
<svg version="1.1" id="레이어_1" xmlns="http://www.w3.org/2000/svg" xmlns:xlink="http://www.w3.org/1999/xlink" x="0px"
	 y="0px" width="85.039px" height="16.531px" viewBox="0 0 85.039 16.531" enable-background="new 0 0 85.039 16.531"
	 xml:space="preserve">
<g>
	<g>
		<path d="M29,12.7h-5.524c-1.014,0-1.731-0.201-2.154-0.603c-0.422-0.402-0.634-1.033-0.634-1.894V5.349
			c0-0.86,0.212-1.491,0.634-1.894c0.423-0.401,1.141-0.603,2.154-0.603h3.379c1.014,0,1.731,0.201,2.154,0.603
			c0.422,0.402,0.634,1.033,0.634,1.894v1.412c0,0.86-0.212,1.492-0.634,1.894c-0.423,0.402-1.141,0.603-2.154,0.603h-3.632v0.431
			c0,0.517,0.253,0.774,0.76,0.774H29V12.7z M26.348,7.19c0.507,0,0.761-0.258,0.761-0.774V5.865c0-0.517-0.254-0.774-0.761-0.774
			h-2.365c-0.507,0-0.76,0.258-0.76,0.774V7.19H26.348z"/>
		<path d="M37.396,11.874c-0.191,0.551-0.541,0.826-1.047,0.826h-2.011c-0.519,0-0.868-0.275-1.048-0.826l-3.058-9.021h2.703
			l2.398,7.609l2.399-7.609h2.703L37.396,11.874z"/>
		<path d="M49.51,12.7h-5.524c-1.014,0-1.731-0.201-2.154-0.603c-0.422-0.402-0.633-1.033-0.633-1.894V5.349
			c0-0.86,0.211-1.491,0.633-1.894c0.423-0.401,1.141-0.603,2.154-0.603h3.379c1.014,0,1.732,0.201,2.154,0.603
			c0.423,0.402,0.634,1.033,0.634,1.894v1.412c0,0.86-0.211,1.492-0.634,1.894c-0.422,0.402-1.141,0.603-2.154,0.603h-3.632v0.431
			c0,0.517,0.253,0.774,0.76,0.774h5.018V12.7z M46.857,7.19c0.507,0,0.761-0.258,0.761-0.774V5.865
			c0-0.517-0.254-0.774-0.761-0.774h-2.365c-0.507,0-0.76,0.258-0.76,0.774V7.19H46.857z"/>
		<path d="M60.289,12.7h-2.534v-6.06c0-0.574-0.119-0.976-0.355-1.205s-0.591-0.345-1.064-0.345h-1.96
			c-0.214,0-0.352,0.031-0.413,0.095c-0.063,0.063-0.094,0.204-0.094,0.422V12.7h-2.533V4.746c0-0.688,0.141-1.176,0.422-1.463
			s0.761-0.431,1.437-0.431h3.294c1.295,0,2.253,0.302,2.873,0.904c0.618,0.603,0.929,1.529,0.929,2.78V12.7z"/>
		<path d="M85.039,14.68c0,0.688-0.141,1.177-0.422,1.464c-0.282,0.286-0.761,0.43-1.437,0.43h-7.096v-2.238h5.913
			c0.214,0,0.352-0.031,0.414-0.094c0.062-0.063,0.093-0.204,0.093-0.422V12.7h-3.632c-1.014,0-1.731-0.201-2.154-0.603
			c-0.422-0.402-0.634-1.033-0.634-1.894V2.853h2.534v6.835c0,0.517,0.254,0.774,0.761,0.774h3.125V2.853h2.534V14.68z"/>
		<path fill="#4E52DC" d="M75.325,5.091V2.853h-2.619V0.115h-2.534v2.737h-0.67h-1.104h-0.338h-1.382h-1.237V0.115h-2.534v2.737
			h-1.773v2.238h1.773v3.925c0,1.252,0.31,2.178,0.93,2.78c0.619,0.603,1.576,0.904,2.872,0.904h1.352v-2.238h-1.2
			c-0.473,0-0.827-0.114-1.064-0.344c-0.236-0.23-0.354-0.632-0.354-1.205V5.091h1.237h1.382h0.338h1.104h0.67v3.925
			c0,1.252,0.311,2.178,0.93,2.78s1.576,0.904,2.872,0.904h1.352v-2.238h-1.2c-0.473,0-0.828-0.114-1.064-0.344
			c-0.236-0.23-0.354-0.632-0.354-1.205V5.091H75.325z"/>
	</g>
	<g>
		<rect fill="#4E52DC" width="10.185" height="1.528"/>
		<rect y="2.989" fill="#4E52DC" width="10.185" height="1.529"/>
		<rect y="5.979" fill="#4E52DC" width="10.185" height="1.529"/>
		<rect y="8.97" fill="#4E52DC" width="10.185" height="1.528"/>
		<rect y="11.959" fill="#4E52DC" width="10.185" height="1.529"/>
		<rect y="14.949" fill="#4E52DC" width="10.185" height="1.529"/>
	</g>
	<g>
		<path d="M15.437,0.915c0.506,0,0.916-0.409,0.916-0.915h-1.832C14.521,0.506,14.931,0.915,15.437,0.915z"/>
		<path d="M15.437,15.563c-0.506,0-0.916,0.41-0.916,0.916h1.832C16.353,15.973,15.942,15.563,15.437,15.563z"/>
		<circle cx="15.437" cy="12.908" r="0.916"/>
		<circle cx="15.437" cy="9.795" r="0.916"/>
		<circle cx="15.437" cy="6.683" r="0.916"/>
		<circle cx="15.437" cy="3.57" r="0.916"/>
	</g>
</g>
</svg>
