<?xml version="1.0" encoding="UTF-8"?>
<!-- Created with Inkscape (http://www.inkscape.org/) -->
<svg width="23.32457mm" height="6.3516474mm" version="1.1" viewBox="0 0 23.325 6.3516" xml:space="preserve" xmlns="http://www.w3.org/2000/svg"><g transform="translate(-91.385 -148.99)"><g transform="matrix(.2 0 0 .2 82.438 121.73)"><path d="m120.22 136.29v4.7754h-2.9807v4.0215h2.9807v9.6056c0 1.7757 0.3343 3.2334 1.2578 4.2519 0.9235 1.0186 2.4061 1.5529 4.5801 1.5529 1.7037 0 3.12-0.4506 3.9259-0.80099l0.18552-0.0801-0.77567-3.9176-0.28112 0.11679c-0.95524 0.39528-1.7271 0.52348-2.5471 0.52348-0.53355 0-0.91881-0.0837-1.1658-0.30437-0.24701-0.22066-0.41187-0.61647-0.41186-1.3751v-9.5725h3.1533v1e-3h3.176v-1e-3h1.5668v9.6056c0 1.7757 0.33429 3.2334 1.2578 4.2519 0.92351 1.0186 2.4061 1.5529 4.5801 1.5529 1.7037 0 3.12-0.4506 3.9259-0.80099l0.18552-0.0801-0.77514-3.9176-0.28164 0.11679c-0.95524 0.39527-1.7266 0.52348-2.5466 0.52348-0.53354 0-0.91932-0.0837-1.1663-0.30437-0.24701-0.22066-0.41186-0.61647-0.41186-1.3751v-9.5725h4.7072v-4.0215h-4.7072v-4.7754h-4.7677v4.7754h-1.5668v-0.0134h-3.176v0.0134h-3.1533v-4.7754zm-66.731 4.3692c-2.4171 0-4.6084 0.67443-6.197 2.1446-1.5886 1.4702-2.5528 3.7262-2.5528 6.8089v1.9296c0 3.3887 1.0878 5.6524 2.744 7.045 1.6562 1.3926 3.8511 1.91 6.041 1.91 3.5255 0 5.9547-0.79388 7.7933-2.0428l0.1912-0.12919-1.9999-3.5021-0.21859 0.12713c-1.8346 1.0674-3.3614 1.4904-5.5294 1.4904-1.4475 0-2.5256-0.36733-3.2463-1.0645-0.67268-0.65075-1.0242-1.6401-1.0723-2.9394h12.459v-3.3321c0-2.7786-0.87802-4.9049-2.3807-6.3242-1.5027-1.4192-3.6128-2.1213-6.0317-2.1213zm35.217 0c-2.4171 0-4.6084 0.67443-6.197 2.1446-1.5886 1.4702-2.5528 3.7262-2.5528 6.8089v1.9296c0 3.3887 1.0878 5.6524 2.744 7.045 1.6562 1.3926 3.8511 1.91 6.041 1.91 3.5255 0 5.9542-0.79388 7.7928-2.0428l0.19172-0.12919-1.9999-3.5021-0.21911 0.12713c-1.8346 1.0674-3.3614 1.4904-5.5294 1.4904-1.4475 0-2.5251-0.36733-3.2458-1.0645-0.67268-0.65075-1.0242-1.6401-1.0723-2.9394h12.459v-3.3321c0-2.7786-0.87802-4.9049-2.3807-6.3242-1.5027-1.4192-3.6123-2.1213-6.0312-2.1213zm20.488 0c-2.0807 0-3.9702 0.71376-5.3377 2.3322v-1.926h-4.5315v19.161h4.7677v-11.291c0-1.7861 0.62022-2.7656 1.3927-3.3342s1.7308-0.71675 2.3885-0.71675c1.1565 0 1.9572 0.30832 2.4903 0.92191s0.81442 1.5719 0.81442 2.9259v11.494h4.7677v-12.409c0-2.5585-0.81367-4.3676-2.0764-5.5196-1.2627-1.1519-2.9521-1.6387-4.6757-1.6387zm-47.518 0.40618 6.2601 19.161h5.9159l0.05633-0.17209 6.2032-18.988h-4.9687l-4.1465 14.25-4.1134-14.25zm81.059 0 0.11731 0.33228 6.6074 18.811-2.467 6.2849 4.4747 1.555 9.8945-26.983h-5.0819l-4.1486 13.406-4.1171-13.406zm-89.314 3.6153c1.4418 0 2.3975 0.41124 3.004 1.0372 0.60646 0.6259 0.87902 1.4865 0.87902 2.4376v0.56224h-7.8987v-0.46043c0-0.99342 0.33178-1.8786 0.99064-2.5218 0.65886-0.64316 1.6533-1.0547 3.0251-1.0547zm35.219 0c1.4418 0 2.397 0.41124 3.0034 1.0372 0.60646 0.6259 0.87695 1.4865 0.87695 2.4376v0.56224h-7.8982v-0.46043c0-0.99342 0.33126-1.8786 0.99012-2.5218 0.65886-0.64316 1.6559-1.0547 3.0277-1.0547z" color="#000000" style="-inkscape-stroke:none"/></g></g></svg>
